<?xml version="1.0" encoding="UTF-8" standalone="no"?>
<svg width="95px" height="97px" viewBox="0 0 95 97" version="1.1" xmlns="http://www.w3.org/2000/svg" xmlns:xlink="http://www.w3.org/1999/xlink" xmlns:sketch="http://www.bohemiancoding.com/sketch/ns">
    <!-- Generator: Sketch 3.3.2 (12043) - http://www.bohemiancoding.com/sketch -->
    <title>Slice 1</title>
    <desc>Created with Sketch.</desc>
    <defs></defs>
    <g id="Page-1" stroke="none" stroke-width="1" fill="none" fill-rule="evenodd" sketch:type="MSPage">
        <g id="google" sketch:type="MSLayerGroup" fill="#DD4B39">
            <g id="Group" sketch:type="MSShapeGroup">
                <path d="M61.617,0 L38.525,0 C28.235,0 21.112,2.256 14.701,7.552 C9.659,11.902 6.65,18.224 6.65,24.464 C6.65,34.078 13.98,44.295 27.563,44.295 C28.869,44.295 30.315,44.161 31.591,44.042 L31.403,44.499 C30.857,45.807 30.34,47.041 30.34,48.967 C30.34,52.717 32.149,55.03 33.898,57.265 L34.118,57.548 L33.727,57.575 C28.118,57.959 17.678,58.675 10.052,63.362 C1.045,68.717 0.345,76.507 0.345,78.766 C0.345,87.754 8.721,96.826 27.435,96.826 C49.195,96.826 60.581,84.821 60.581,72.963 C60.583,64.192 55.44,59.862 49.981,55.265 L45.376,51.683 C43.953,50.504 42.181,49.037 42.181,46.319 C42.181,43.647 43.953,41.883 45.517,40.327 L45.68,40.162 C50.653,36.245 56.289,31.804 56.289,22.198 C56.289,12.54 50.254,7.549 47.352,5.15 L55.015,5.15 C55.109,5.15 55.203,5.124 55.281,5.073 L61.882,0.923 C62.07,0.804 62.158,0.575 62.096,0.361 C62.037,0.147 61.839,0 61.617,0 L61.617,0 Z M33.614,91.535 C20.35,91.535 11.438,85.34 11.438,76.119 C11.438,70.098 15.083,65.723 22.262,63.122 C28.011,61.187 35.432,61.091 35.506,61.091 C36.763,61.091 37.395,61.091 38.399,61.217 C47.68,67.822 52.142,71.29 52.142,77.895 C52.141,86.309 45.041,91.535 33.614,91.535 L33.614,91.535 Z M33.489,40.756 C22.357,40.756 17.737,26.123 17.737,18.288 C17.737,14.304 18.643,11.246 20.507,8.937 C22.53,6.406 25.994,4.771 29.332,4.771 C39.553,4.771 45.205,18.509 45.205,28.004 C45.205,29.502 45.205,34.059 42.057,37.224 C39.94,39.337 36.497,40.756 33.489,40.756 L33.489,40.756 Z" id="Shape"></path>
                <path d="M93.982,45.223 L81.814,45.223 L81.814,33.098 C81.814,32.822 81.589,32.598 81.314,32.598 L76.08,32.598 C75.804,32.598 75.58,32.822 75.58,33.098 L75.58,45.223 L63.473,45.223 C63.197,45.223 62.973,45.447 62.973,45.723 L62.973,51.027 C62.973,51.302 63.197,51.527 63.473,51.527 L75.58,51.527 L75.58,63.73 C75.58,64.005 75.804,64.23 76.08,64.23 L81.314,64.23 C81.589,64.23 81.814,64.005 81.814,63.73 L81.814,51.525 L93.982,51.525 C94.258,51.525 94.482,51.302 94.482,51.025 L94.482,45.723 C94.482,45.446 94.259,45.223 93.982,45.223 L93.982,45.223 Z" id="Shape"></path>
            </g>
        </g>
    </g>
</svg>