<?xml version="1.0" encoding="UTF-8" standalone="no"?>
<svg width="469px" height="484px" viewBox="0 0 469 484" version="1.1" xmlns="http://www.w3.org/2000/svg" xmlns:xlink="http://www.w3.org/1999/xlink" xmlns:sketch="http://www.bohemiancoding.com/sketch/ns">
    <!-- Generator: Sketch 3.3.2 (12043) - http://www.bohemiancoding.com/sketch -->
    <title>Slice 1</title>
    <desc>Created with Sketch.</desc>
    <defs></defs>
    <g id="Page-1" stroke="none" stroke-width="1" fill="none" fill-rule="evenodd" sketch:type="MSPage">
        <g id="magnifying-glass34" sketch:type="MSLayerGroup" fill="#CCCCCC">
            <path d="M325.74,315.35 C356.623,281.917 375.89,237.15 375.89,187.85 C375.89,84.433 291.74,0 188.04,0 C84.34,0 0.19,84.433 0.19,187.85 C0.19,291.267 84.34,375.7 188.04,375.7 C230.257,375.7 269.073,361.817 300.523,338.3 L440.206,477.983 C443.606,481.383 447.856,483.083 452.106,483.083 C456.356,483.083 460.889,481.383 464.006,477.983 C470.523,471.466 470.523,460.7 464.006,453.9 L325.74,315.35 L325.74,315.35 Z M34.19,187.85 C34.19,103.133 103.04,34 188.04,34 C272.757,34 341.89,102.85 341.89,187.85 C341.89,272.85 273.04,341.7 188.04,341.7 C103.04,341.7 34.19,272.567 34.19,187.85 L34.19,187.85 Z" id="Shape" sketch:type="MSShapeGroup"></path>
        </g>
    </g>
</svg>