<?xml version="1.0" encoding="UTF-8" standalone="no"?>
<svg width="53px" height="47px" viewBox="0 0 53 47" version="1.1" xmlns="http://www.w3.org/2000/svg" xmlns:xlink="http://www.w3.org/1999/xlink" xmlns:sketch="http://www.bohemiancoding.com/sketch/ns">
    <!-- Generator: Sketch 3.3.2 (12043) - http://www.bohemiancoding.com/sketch -->
    <title>Slice 1</title>
    <desc>Created with Sketch.</desc>
    <defs></defs>
    <g id="Page-1" stroke="none" stroke-width="1" fill="none" fill-rule="evenodd" sketch:type="MSPage">
        <g id="twitter" sketch:type="MSLayerGroup" fill="#55ACEE">
            <g id="twitter_2_" sketch:type="MSShapeGroup">
                <path d="M52.8358551,7.48200952 C53.0388535,7.23655313 53.055084,6.8865396 52.8760784,6.62320617 C52.6969553,6.35975514 52.3651716,6.24578904 52.0624381,6.34446557 C50.6568563,6.8026822 49.1932917,7.12835002 47.683035,7.31170724 C49.4840287,6.22214901 50.969822,4.6543801 51.9618798,2.78187832 C52.1070131,2.50795981 52.0593802,2.17170689 51.8439149,1.94894963 C51.6284496,1.72607476 51.2940785,1.66738633 51.0153379,1.80299305 C49.2632708,2.65556295 47.3894753,3.29478456 45.4253537,3.68466858 C43.3137466,1.41710785 40.3081701,0 36.9798661,0 C30.5922369,0 25.4107195,5.22456342 25.4107195,11.6700578 C25.4107195,12.5830803 25.5133949,13.4730508 25.7121593,14.3291491 C16.9674665,13.885634 9.12203573,10.0016129 3.48171364,3.99045996 C3.09182962,3.5748189 2.50964987,3.39910647 1.95499134,3.52930303 C1.4002152,3.65949959 0.956464856,4.07572871 0.792631241,4.62168395 C0.471667899,5.69207141 0.29854293,6.82749834 0.29854293,8.00291338 C0.29854293,12.0540612 2.09048045,15.6252341 5.19414539,17.7179057 C4.35615938,17.6908549 3.18650734,17.4311675 2.14199453,17.1501922 C1.55934433,16.9934153 0.937176476,17.1579546 0.508480477,17.5827694 C0.0799020897,18.0074666 -0.0892240686,18.6276351 0.0616722187,19.2118142 C1.18651407,23.5661659 4.8493068,26.9592742 9.23635466,27.8483038 C8.26287955,28.1158713 7.36832214,28.257829 6.31251858,28.257829 L6.31146007,28.257829 C5.83842432,28.257829 5.4007898,28.509166 5.16262536,28.917868 C4.92446091,29.3266876 4.92222628,29.8306553 5.1552158,30.2424151 C7.11886694,33.7143235 10.8147087,36.0759739 15.0367468,36.1561853 C11.0769836,39.2845488 6.10281625,41.1488177 0.68466336,41.1488177 L0.674666334,41.1488177 C0.365817035,41.1487001 0.0966030038,41.3589905 0.0219193387,41.658666 C-0.0527643265,41.9584592 0.0864883657,42.2702488 0.359230759,42.4152645 C4.9321057,44.846306 10.1423204,46.2296592 15.6702054,46.2296592 C36.9489342,46.2296592 48.5879423,28.4448322 48.5879423,13.0241255 C48.5879423,12.5162766 48.5768868,12.0167781 48.5548933,11.514457 C50.141833,10.356919 51.5824633,8.99897001 52.8358551,7.48200952 L52.8358551,7.48200952 Z" id="Shape"></path>
            </g>
        </g>
    </g>
</svg>